Coordinates
version=1
nRows=24
nColumns=24
inDegrees=yes

Units are S.I. units (second, meters, Newtons, ...)
Angles are in degrees.

endheader
time	pelvis_tilt	pelvis_list	pelvis_rotation	pelvis_tx	pelvis_ty	pelvis_tz	hip_flexion_r	hip_adduction_r	hip_rotation_r	knee_angle_r	ankle_angle_r	subtalar_angle_r	mtp_angle_r	hip_flexion_l	hip_adduction_l	hip_rotation_l	knee_angle_l	ankle_angle_l	subtalar_angle_l	mtp_angle_l	lumbar_extension	lumbar_bending	lumbar_rotation
      5.80000000	    -11.68396569	      1.19391615	     -4.75268151	     -1.16451331	     -0.02788731	     -0.26382275	     -2.52519995	      2.59229484	      9.95945600	    -16.32249139	      8.38162373	      6.42829634	     21.03004269	     33.86005645	     -1.24304552	     -0.67707489	     -5.91999184	     -0.59151359	      2.11981821	      7.35220024	      8.41768909	     -1.01906733	     14.84657087
      5.80500000	    -11.70777366	      1.30960349	     -4.77186748	     -1.15790158	     -0.02870792	     -0.26456514	     -2.57846850	      2.35597956	      9.66542619	    -16.93613667	      8.18110695	      7.07680421	     21.51487736	     33.90204899	     -1.06405691	     -0.59064047	     -6.61923008	     -0.91782474	      1.87254416	      7.51884850	      8.59844502	     -1.12237312	     14.88755314
      5.81000000	    -11.72179523	      1.41276003	     -4.75524185	     -1.15132357	     -0.02948203	     -0.26539684	     -2.62673381	      2.12255256	      9.32609608	    -17.55912647	      7.87491496	      7.73886879	     22.18013524	     33.93983885	     -0.86910535	     -0.41794095	     -7.31955346	     -1.38682611	      1.52215055	      7.80024552	      8.75476178	     -1.21733530	     14.84592385
      5.81500000	    -11.75361839	      1.59063021	     -4.69831227	     -1.14465429	     -0.03020692	     -0.26622598	     -2.64486265	      1.81016040	      8.91884765	    -18.17940857	      7.44488933	      8.29687594	     23.00378919	     33.98428416	     -0.58318832	     -0.23870588	     -7.98401982	     -2.00933025	      1.13710622	      8.20278833	      8.95349389	     -1.40953216	     14.82066107
      5.82000000	    -11.81215414	      1.84808296	     -4.69012140	     -1.13796338	     -0.03084510	     -0.26699824	     -2.59331057	      1.41036313	      8.60225538	    -18.88688028	      7.15641806	      9.03283996	     23.34743001	     34.06802485	     -0.25476645	     -0.26729230	     -8.68371243	     -2.50356069	      1.00007747	      8.26216356	      9.19581979	     -1.67387787	     14.86365456
      5.82500000	    -11.84674408	      2.06022404	     -4.56727660	     -1.13144082	     -0.03140923	     -0.26800154	     -2.53261020	      1.03241311	      8.02707555	    -19.60222088	      6.66636032	      9.81513608	     24.26547099	     34.13376262	      0.12342594	      0.09011566	     -9.34132298	     -3.27643541	      0.46348507	      8.57856519	      9.36663772	     -1.90597041	     14.74855757
      5.83000000	    -11.90646454	      2.38018205	     -4.48657502	     -1.12485339	     -0.03186547	     -0.26887755	     -2.40093663	      0.53922432	      7.51402375	    -20.40524895	      6.27505357	     10.73234835	     24.73940407	     34.23872238	      0.56055334	      0.16080251	    -10.04227340	     -3.82011697	      0.39402311	      8.65186478	      9.59323248	     -2.25659429	     14.67723629
      5.83500000	    -11.96401735	      2.70719953	     -4.29886187	     -1.11829543	     -0.03221693	     -0.26993527	     -2.26954207	      0.02145913	      6.85040121	    -21.16932660	      5.62567903	     11.56452393	     25.66813290	     34.33215303	      1.09506465	      0.58444898	    -10.71006728	     -4.56530911	     -0.03121613	      8.76963838	      9.80440743	     -2.62779133	     14.58676855
      5.84000000	    -12.01804561	      3.07853439	     -4.12553110	     -1.11180399	     -0.03246509	     -0.27092518	     -2.08559603	     -0.55143700	      6.18832587	    -22.03728243	      5.05351487	     12.56839611	     26.25343757	     34.46773239	      1.65091997	      0.75401157	    -11.47095281	     -5.10958194	     -0.05597305	      8.78017205	     10.00361007	     -3.05545158	     14.44622068
      5.84500000	    -12.08050562	      3.49096716	     -3.88593621	     -1.10526451	     -0.03260348	     -0.27198978	     -1.89271298	     -1.17656555	      5.47989815	    -22.85924972	      4.14722379	     13.39658449	     27.45089238	     34.56563709	      2.31215427	      1.29266047	    -12.16896992	     -5.77542744	     -0.42941710	      8.61466503	     10.21999885	     -3.54476009	     14.26903170
      5.85000000	    -12.12392863	      3.90485502	     -3.66636045	     -1.09874988	     -0.03266431	     -0.27292976	     -1.66085579	     -1.81687651	      4.70475621	    -23.81510398	      3.38944806	     14.47379726	     27.95239425	     34.68478923	      2.93552625	      1.54405126	    -12.96097085	     -6.16372399	     -0.26117182	      8.55319283	     10.41106921	     -4.04832506	     14.09672806
      5.85500000	    -12.17762613	      4.33407534	     -3.38722338	     -1.09224817	     -0.03263382	     -0.27402115	     -1.40629717	     -2.49334037	      3.86801569	    -24.73396036	      2.24778832	     15.36469990	     29.22297260	     34.77154945	      3.65803249	      2.20439977	    -13.70384824	     -6.66993802	     -0.61676975	      7.99378235	     10.60156671	     -4.56860031	     13.91767128
      5.86000000	    -12.19379712	      4.72082973	     -3.13288334	     -1.08574876	     -0.03254696	     -0.27497048	     -1.14371694	     -3.14129640	      2.98527738	    -25.76982834	      1.21350559	     16.48235326	     29.82629426	     34.84528312	      4.29120771	      2.57957547	    -14.50738014	     -6.91910668	     -0.43721934	      7.77492292	     10.74850997	     -5.05435991	     13.75960747
      5.86500000	    -12.22604873	      5.14751585	     -2.82271090	     -1.07910923	     -0.03236269	     -0.27601348	     -0.88349864	     -3.83959764	      2.11612258	    -26.72931106	     -0.24546405	     17.32048173	     31.09012155	     34.86641008	      5.03547596	      3.25109420	    -15.23077719	     -7.21064631	     -0.68770573	      6.91995229	     10.93292326	     -5.59549599	     13.53563915
      5.87000000	    -12.21751666	      5.48155213	     -2.54545119	     -1.07259462	     -0.03216579	     -0.27696643	     -0.59756367	     -4.46414559	      1.19533296	    -27.83175967	     -1.59396044	     18.38725634	     31.69997427	     34.87133211	      5.64438101	      3.71584638	    -15.99676839	     -7.33504506	     -0.55832688	      6.54795482	     11.04092753	     -6.03445678	     13.37172549
      5.87500000	    -12.17808222	      5.84600670	     -2.26145589	     -1.06584232	     -0.03184929	     -0.27790369	     -0.37175146	     -5.12503109	      0.32308844	    -28.83478716	     -3.43009339	     19.10544460	     33.00432854	     34.76687171	      6.30639488	      4.24896341	    -16.69318724	     -7.23248573	     -0.54780943	      5.49062766	     11.15778050	     -6.51699322	     13.15304373
      5.88000000	    -12.19466947	      6.14861658	     -1.97665645	     -1.05914808	     -0.03161815	     -0.27880537	     -0.01963005	     -5.73023479	     -0.55573926	    -30.02308831	     -5.00724168	     19.98834716	     33.03801703	     34.71046967	      6.88287274	      4.67645449	    -17.32341267	     -7.35434225	     -0.56616024	      5.39694811	     11.32257494	     -6.92835369	     12.93198804
      5.88500000	    -12.18503674	      6.36966854	     -1.67814965	     -1.05254303	     -0.03135894	     -0.27985848	      0.33592687	     -6.27919677	     -1.46331224	    -31.22635563	     -6.82534469	     20.76498906	     33.35743079	     34.57100945	      7.43197105	      5.34988910	    -17.88186932	     -7.43316731	     -0.92989291	      5.03035638	     11.42835337	     -7.24181106	     12.73774009
      5.89000000	    -12.17057808	      6.59248722	     -1.39448539	     -1.04575961	     -0.03107112	     -0.28081614	      0.68482045	     -6.82290956	     -2.29057626	    -32.42350311	     -8.78705671	     21.32282272	     33.47787382	     34.37716052	      7.95032011	      5.83296450	    -18.37238355	     -7.36333651	     -1.14295067	      4.80405376	     11.56883707	     -7.56523854	     12.49232863
      5.89500000	    -12.15079553	      6.76917904	     -1.14375063	     -1.03909919	     -0.03076722	     -0.28175747	      1.08289300	     -7.31867692	     -3.04187427	    -33.67934229	    -10.83475305	     21.68461993	     33.43689717	     34.14587115	      8.40784256	      6.30582984	    -18.79953075	     -7.28758547	     -1.42562876	      4.63487687	     11.68060354	     -7.82407290	     12.31059013
      5.90000000	    -12.13001227	      6.89862392	     -0.89907030	     -1.03257730	     -0.03047998	     -0.28276401	      1.52820246	     -7.77630589	     -3.75851863	    -34.98983773	    -12.91205044	     21.91294878	     33.29332230	     33.88715555	      8.82343265	      6.79440649	    -19.17331224	     -7.18216199	     -1.76447560	      4.52011768	     11.76241882	     -8.01907034	     12.15409840
      5.90500000	    -12.10221670	      7.07115878	     -0.72806408	     -1.02603133	     -0.03019494	     -0.28362951	      2.01962672	     -8.27481360	     -4.36662732	    -36.36296828	    -14.93585477	     21.93263209	     32.87466642	     33.57778787	      9.21398569	      7.04869512	    -19.45288747	     -6.98497762	     -1.99716762	      4.57880910	     11.85918139	     -8.25022144	     12.05326833
      5.91000000	    -12.10627462	      7.18404034	     -0.50520696	     -1.01958732	     -0.02993286	     -0.28463408	      2.56308152	     -8.70748223	     -4.95512798	    -37.74965476	    -16.97356721	     21.74168003	     32.36423428	     33.26365398	      9.59178802	      7.45191621	    -19.66723751	     -6.82373674	     -2.38280721	      4.63558593	     11.96605512	     -8.41529627	     11.88475399
      5.91500000	    -12.14985851	      7.23199354	     -0.23881321	     -1.01329635	     -0.02969179	     -0.28578432	      3.17394092	     -9.06134792	     -5.47466035	    -39.15316433	    -18.96500760	     21.41797115	     31.75187322	     32.96245574	      9.94549748	      7.98995970	    -19.82648573	     -6.72767193	     -2.91925647	      4.73000482	     12.08381345	     -8.50726126	     11.64465270
